HIERARCHY
ROOT RootJoint
{
    OFFSET   0.000000   0.000000   0.000000
    CHANNELS 6 Xposition Yposition Zposition Xrotation Yrotation Zrotation
    JOINT pelvis_lowerback
    {
        OFFSET   0.000000   0.093605   0.000000
        CHANNELS 3 Xrotation Yrotation Zrotation
        JOINT lowerback_torso
        {
            OFFSET   0.000000   0.100000   0.000000
            CHANNELS 3 Xrotation Yrotation Zrotation
            JOINT torso_head
            {
                OFFSET   0.000000   0.282350   0.000000
                CHANNELS 3 Xrotation Yrotation Zrotation
                End Site
                {
                    OFFSET   0.000000   0.192650   0.000000
                }
            }
            JOINT rTorso_Clavicle
            {
                OFFSET  -0.001000   0.157500   0.000000
                CHANNELS 3 Xrotation Yrotation Zrotation
                JOINT rShoulder
                {
                    OFFSET  -0.117647   0.000000   0.000000
                    CHANNELS 3 Xrotation Yrotation Zrotation
                    JOINT rElbow
                    {
                        OFFSET  -0.245000   0.000000   0.000000
                        CHANNELS 3 Xrotation Yrotation Zrotation
                        JOINT rWrist
                        {
                            OFFSET  -0.240000   0.000000   0.000000
                            CHANNELS 3 Xrotation Yrotation Zrotation
                            End Site
                            {
                                OFFSET  -0.116353  -0.002500   0.000000
                            }
                        }
                    }
                }
            }
            JOINT lTorso_Clavicle
            {
                OFFSET   0.001000   0.157500   0.000000
                CHANNELS 3 Xrotation Yrotation Zrotation
                JOINT lShoulder
                {
                    OFFSET   0.117647   0.000000   0.000000
                    CHANNELS 3 Xrotation Yrotation Zrotation
                    JOINT lElbow
                    {
                        OFFSET   0.245000   0.000000   0.000000
                        CHANNELS 3 Xrotation Yrotation Zrotation
                        JOINT lWrist
                        {
                            OFFSET   0.240000   0.000000   0.000000
                            CHANNELS 3 Xrotation Yrotation Zrotation
                            End Site
                            {
                                OFFSET   0.116353  -0.002500   0.000000
                            }
                        }
                    }
                }
            }
        }
    }
    JOINT rHip
    {
        OFFSET  -0.100000  -0.051395   0.000000
        CHANNELS 3 Xrotation Yrotation Zrotation
        JOINT rKnee
        {
            OFFSET   0.000000  -0.410000   0.000000
            CHANNELS 3 Xrotation Yrotation Zrotation
            JOINT rAnkle
            {
                OFFSET   0.000000  -0.390000   0.000000
                CHANNELS 3 Xrotation Yrotation Zrotation
                JOINT rToeJoint
                {
                    OFFSET   0.000000  -0.050000   0.130000
                    CHANNELS 3 Xrotation Yrotation Zrotation
                    End Site
                    {
                        OFFSET  -0.010000   0.002000   0.060000
                    }
                }
            }
        }
    }
    JOINT lHip
    {
        OFFSET   0.100000  -0.051395   0.000000
        CHANNELS 3 Xrotation Yrotation Zrotation
        JOINT lKnee
        {
            OFFSET   0.000000  -0.410000   0.000000
            CHANNELS 3 Xrotation Yrotation Zrotation
            JOINT lAnkle
            {
                OFFSET   0.000000  -0.390000   0.000000
                CHANNELS 3 Xrotation Yrotation Zrotation
                JOINT lToeJoint
                {
                    OFFSET   0.000000  -0.050000   0.130000
                    CHANNELS 3 Xrotation Yrotation Zrotation
                    End Site
                    {
                        OFFSET   0.010000   0.002000   0.060000
                    }
                }
            }
        }
    }
}
MOTION
Frames: 10
Frame Time:   0.008333
 -2.522735   0.910662   5.027061  -4.938987   0.863986  -1.503975   7.908092  -0.158296   0.592746   6.371235  -0.864975   2.075057   0.454136  -0.589473   0.356654   4.356692   3.564066  10.715047  10.891186  14.938527  44.521103  -0.002497  16.587563  -0.002891  10.725415   2.180713   3.998415   3.531981  -4.065123 -10.765543  14.126867 -17.380485 -47.969537  -0.001565 -18.661848   0.000273   9.680887  -3.661171  -5.575838  -5.751305   1.400656   2.092632  16.832923   0.001676   0.001489  -6.184562   0.388910  -3.174127  -0.081007   0.000055   0.000029   2.052794  -2.830553   6.919689  58.566857   0.012163   0.006793   6.523567  -1.565531  -4.048558  -8.477971   0.011242   0.024425
 -2.523903   0.911567   5.034449  -5.031407   0.664618  -1.416233   8.039040   0.064503   0.528774   6.267124  -0.784697   1.929645   0.485182  -0.633322   0.400505   4.263381   3.721023  10.698317  10.734846  15.103684  44.311236  -0.003074  16.896273  -0.002777  10.756288   2.130731   3.950305   3.514989  -3.899862 -10.815868  14.295359 -17.270527 -47.992666  -0.001425 -18.528249   0.000539   9.677046  -3.659107  -5.663910  -4.912521   1.391185   2.065430  16.362936   0.001845   0.002102  -6.439117   0.619718  -3.183177  -0.117739   0.000074   0.000023   0.985518  -2.647380   6.662397  59.372931   0.010953   0.005025   5.479162  -1.086740  -3.961429  -7.693873   0.009294   0.021650
 -2.524981   0.912447   5.041730  -5.114162   0.465384  -1.316551   8.174162   0.283572   0.459719   6.160785  -0.695628   1.776538   0.517145  -0.676688   0.438857   4.145693   3.887979  10.662528  10.566737  15.276199  44.101107  -0.003584  17.198641  -0.002690  10.778728   2.138452   3.854133   3.499680  -3.740359 -10.848302  14.453870 -17.163970 -48.010488  -0.001284 -18.403553   0.000728   9.673659  -3.662168  -5.729720  -4.075468   1.390000   2.016216  15.860700   0.001963   0.002630  -6.671166   0.843991  -3.195618  -0.148173   0.000080   0.000018  -0.120178  -2.463682   6.380569  60.004635   0.009739   0.003603   4.490298  -0.639677  -3.871751  -7.029454   0.007803   0.018813
 -2.526003   0.913226   5.048967  -5.204815   0.264855  -1.222915   8.311662   0.505005   0.393805   6.062095  -0.595345   1.627778   0.549601  -0.717353   0.474011   4.017669   4.058593  10.612473  10.398397  15.447283  43.892124  -0.003975  17.487298  -0.002617  10.798023   2.179053   3.725012   3.486950  -3.589174 -10.867993  14.604318 -17.061732 -48.022663  -0.001143 -18.286456   0.000864   9.670977  -3.662090  -5.787384  -3.239627   1.397643   1.966792  15.370406   0.002008   0.002998  -6.906695   1.060013  -3.205177  -0.175144   0.000081   0.000015  -1.234714  -2.288040   6.101229  60.542892   0.008570   0.002451   3.563892  -0.224026  -3.781105  -6.428111   0.006600   0.016172
 -2.526984   0.913881   5.056202  -5.307260   0.059831  -1.141917   8.446227   0.728060   0.332753   5.971980  -0.485647   1.486973   0.581876  -0.755017   0.506858   3.886540   4.227916  10.554985  10.234389  15.613334  43.687759  -0.004237  17.760310  -0.002524  10.815914   2.235196   3.575731   3.478658  -3.443928 -10.879269  14.748600 -16.962458 -48.030533  -0.001009 -18.175534   0.000959   9.669400  -3.654255  -5.839369  -2.406404   1.414144   1.924668  14.907908   0.001992   0.003220  -7.155353   1.270386  -3.207476  -0.200528   0.000082   0.000012  -2.338237  -2.122597   5.834834  61.015270   0.007464   0.001517   2.697216   0.162590  -3.690469  -5.880809   0.005589   0.013769
 -2.527934   0.914409   5.063454  -5.420229  -0.151495  -1.075609   8.573415   0.950176   0.276340   5.888669  -0.369457   1.355097   0.613049  -0.789841   0.537646   3.756504   4.392980  10.495241  10.076810  15.772851  43.491252  -0.004379  18.017403  -0.002395  10.832952   2.299039   3.415873   3.475646  -3.303347 -10.885073  14.887723 -16.865596 -48.035612  -0.000885 -18.069983   0.001019   9.669065  -3.636869  -5.887598  -1.578054   1.439622   1.891917  14.477481   0.001932   0.003328  -7.420079   1.476917  -3.200932  -0.225252   0.000082   0.000009  -3.419167  -1.967887   5.585331  61.434933   0.006434   0.000762   1.886801   0.522301  -3.600643  -5.381904   0.004722   0.011613
 -2.528853   0.914811   5.070730  -5.540756  -0.369952  -1.024032   8.690261   1.168755   0.223822   5.810034  -0.249706   1.232098   0.642409  -0.822068   0.566453   3.630056   4.552079  10.436697   9.926624  15.925239  43.304834  -0.004418  18.258963  -0.002226  10.849299   2.367197   3.252307   3.477654  -3.167186 -10.887436  15.021850 -16.771273 -48.039072  -0.000773 -17.969483   0.001048   9.669878  -3.610363  -5.933630  -0.757062   1.474133   1.868232  14.078780   0.001842   0.003349  -7.700948   1.680722  -3.185287  -0.249749   0.000083   0.000007  -4.470499  -1.823692   5.353755  61.810167   0.005489   0.000159   1.129159   0.857034  -3.512283  -4.926801   0.003972   0.009701
 -2.529682   0.915351   5.078011  -5.640726  -0.634521  -0.921565   8.806863   1.398536   0.135259   5.708032  -0.145190   1.068258   0.660526  -0.869867   0.603644   3.480241   4.627072  10.400542   9.658667  16.115303  43.118056  -0.005144  18.618526  -0.001663  10.854447   2.304832   3.182112   3.450783  -2.952186 -10.889801  15.071028 -16.541142 -48.056868  -0.000623 -17.883184   0.001202   9.664952  -3.637498  -5.975503   0.100674   1.507768   1.767276  13.552751   0.001816   0.003821  -7.900610   1.934305  -3.104508  -0.284696   0.000106   0.000006  -5.399581  -1.625703   5.071366  61.551379   0.004173   0.000462   0.129059   1.299550  -3.377450  -4.617415   0.003235   0.008157
 -2.530465   0.915825   5.085192  -5.716478  -0.888431  -0.819840   8.914071   1.620803   0.051345   5.592758  -0.036155   0.906184   0.677615  -0.916954   0.636159   3.312251   4.712143  10.348442   9.387031  16.310894  42.933812  -0.005745  18.970118  -0.001236  10.850234   2.315626   3.070367   3.426677  -2.745252 -10.874081  15.119327 -16.320576 -48.066795  -0.000487 -17.802525   0.001294   9.660232  -3.672342  -5.991467   0.932349   1.540487   1.660626  13.015538   0.001763   0.004167  -8.089484   2.175528  -3.029175  -0.316015   0.000117   0.000005  -6.344329  -1.441933   4.803439  61.144366   0.003033   0.000890  -0.816710   1.711868  -3.244068  -4.363116   0.002664   0.006798
 -2.531205   0.916193   5.092315  -5.790823  -1.136676  -0.727228   9.018865   1.842828  -0.025108   5.478867   0.080778   0.753273   0.694317  -0.961112   0.666096   3.137305   4.806307  10.285852   9.121913  16.504049  42.750663  -0.006153  19.304761  -0.000946  10.844016   2.362321   2.927440   3.403917  -2.551138 -10.847891  15.166153 -16.112152 -48.069540  -0.000367 -17.726589   0.001343   9.656545  -3.702597  -5.995265   1.748260   1.576223   1.557528  12.499897   0.001676   0.004352  -8.286939   2.405527  -2.953841  -0.345365   0.000122   0.000004  -7.287543  -1.272646   4.558296  60.705074   0.002150   0.001267  -1.703282   2.094888  -3.113729  -4.134536   0.002209   0.005647
